<svg preserveAspectRatio="none" xmlns="http://www.w3.org/2000/svg" version="1.1" enable-background="new 0 0 120 60" height="60" viewBox="0 0 120 60" width="120"><g fill="#ccc"><path d="m32 27.6v4.8h1.4c1.5 0 2.4-1 2.4-2.4 0-1.4-1-2.4-2.4-2.4zm-1.2-1.2h2.6c2.2 0 3.7 1.5 3.7 3.5 0 2-1.5 3.5-3.7 3.5h-2.6z"/><path d="m38.7 26.4h1.2v7h-1.2z"/><path d="m41.5 30c0-2 1.5-3.6 3.6-3.6 1.2 0 2 .3 2.7 1l-.8.8c-.5-.5-1.1-.7-2-.7-1.3 0-2.3 1.1-2.3 2.5 0 1.4 1 2.5 2.4 2.5.7 0 1.3-.2 1.7-.5v-1.3h-1.8v-1.1h3v2.9c-.7.6-1.7 1.1-2.9 1.1-2.2 0-3.6-1.6-3.6-3.6z"/><path d="m49.7 26.4h1.2v7h-1.2z"/><path d="m54.5 27.6h-2.2v-1.1h5.7v1.1h-2.2v5.9h-1.2z"/><path d="m62.6 30.7-1.2-2.8-1.2 2.8zm-1.8-4.3h1.2l3.1 7h-1.3l-.8-1.7h-3.3l-.7 1.7h-1.3z"/><path d="m66.2 26.4h1.2v5.9h3.7v1.1h-4.9z"/><path d="m75.4 28h-2.1v-1.6h6v1.6h-2.1v5.4h-1.8z"/><path d="m83.5 29.8c.7 0 1.1-.4 1.1-.9 0-.6-.4-.9-1.1-.9h-1.4v1.8zm-3.1-3.4h3.3c1 0 1.7.3 2.2.7.4.4.6.9.6 1.6 0 1.1-.6 1.8-1.5 2.2l1.7 2.5h-2.1l-1.4-2.2h-1v2.2h-1.8z"/><path d="m87.6 26.4h5.5v1.6h-3.7v1.2h3.3v1.4h-3.3v1.3h3.8v1.5h-5.6z"/><path d="m94.4 26.4h1.6l3.1 4v-4h1.7v7h-1.5l-3.2-4v4h-1.7z"/><path d="m104.1 28v3.8h.9c1.2 0 2-.7 2-1.9 0-1.2-.8-1.9-2-1.9zm-1.8-1.6h2.7c2.4 0 3.9 1.5 3.9 3.5 0 2-1.5 3.5-3.9 3.5h-2.7z"/><path d="m109.4 32.4 1-1.2c.7.5 1.4.8 2.2.8.6 0 .9-.2.9-.5 0-.3-.2-.5-1.3-.8-1.5-.4-2.5-.8-2.5-2.2 0-1.3 1-2.2 2.6-2.2 1.1 0 2 .3 2.8.9l-.9 1.3c-.6-.4-1.3-.7-1.9-.7-.5 0-.8.2-.8.5 0 .4.3.5 1.3.8 1.5.4 2.5.9 2.5 2.1 0 1.4-1.1 2.2-2.7 2.2-1.2.1-2.3-.2-3.2-1z"/></g><path d="m4.7 19.2h21.5v21.5h-21.5z" fill="#fff"/><path d="m4.7 19.2v21.6h21.6v-21.6zm4 12.7h2.7v2.2h-2.7zm4.9 4.9h-4.9v-2.2h4.9zm8.6-5.4h-5.4v5.4h-2.7v-5.4h-5.4v-2.7h5.4v-5.4h2.7v5.4h5.4c0-.1 0 2.7 0 2.7z" fill="#ccc"/></svg>