<svg preserveAspectRatio="none" xmlns="http://www.w3.org/2000/svg" version="1.1" width="600.000000pt" height="169.000000pt" viewBox="0 0 600.000000 169.000000">
  <g transform="translate(0.000000,169.000000) scale(0.100000,-0.100000)" fill="#ccc" stroke="none">
    <path d="M4792 1133 l3 -558 24 -48 c40 -83 141 -127 289 -127 l73 0 -3 82 -3 82 -42 11 c-23 5 -51 19 -62 29 -21 19 -21 24 -21 553 l0 533 -130 0 -131 0 3
    -557z"/>
    <path d="M5740 1463 l0 -226 -22 20 c-100 91 -325 98 -422 12 -58 -50 -61 -71 -61 -404 l0 -300 25 -50 c41 -83 108 -115 240 -115 91 0 134 11 191 50 l44 29 3 -34 3 -35 130 0 129 0 0 640 0 640 -130 0 -130 0 0 -227z m-81 -323 c19 -5 45 -19 58 -32 23 -21 23 -24 23 -238 0 -179 -3 -219 -16 -238 -34 -49 -116 -67 -174 -37 -54 28 -60 54 -60 272 0 220 4 237 60 265 40 20 61 22 109 8z"/>
    <path d="M1205 1625 c-131 -23 -237 -91 -278 -177 -15 -32 -17 -79 -17 -432 0 -437 0 -439 63 -504 69 -73 191 -112 349 -112 252 0 418 127 418 320 l0 30
    -130 0 -130 0 0 -40 c0 -92 -52 -134 -165 -135 -53 0 -77 5 -99 20 -54 36 -56 54 -56 422 0 302 2 342 18 373 33 68 142 91 228 50 48 -24 74 -67 74 -124 l0
    -36 131 0 132 0 -6 59 c-9 87 -33 135 -92 189 -58 53 -132 86 -230 102 -76 12 -122 11 -210 -5z"/>
    <path d="M0 1020 l0 -610 130 0 130 0 0 235 0 235 88 0 c198 1 308 34 394 119 76 76 93 131 86 286 -6 134 -31 193 -104 249 -99 76 -209 96 -521 96 l-203 0 0 -610z m514 420 c57 -29 71 -61 74 -173 3 -114 -9 -153 -61 -191 -24 -18 -46 -22 -148 -25 l-119 -3 0 207 0 207 113 -4 c74 -2 122 -8 141 -18z"/>
    <path d="M1910 1613 c0 -10 24 -128 54 -263 30 -135 86 -393 126 -575 39 -181 74 -338 76 -348 5 -16 18 -17 127 -15 l121 3 27 110 c15 61 57 235 95 388 37 152 71 274 75 270 3 -5 48 -180 100 -390 l93 -383 123 0 c68 0 123 2 123 4 0 2 59 272 130 600 72 328 130 601 130 606 0 13 -257 13 -265 1 -3 -5 -32 -181 -65 -391 -32 -210 -61 -384 -63 -386 -2 -2 -41 136 -86 308 -45 172 -92 349 -104 393 l-23 80 -96 3 -97 3 -10 -38 c-5 -21 -48 -186 -96 -368 -47 -181 -89 -339 -94 -350 -7 -16 -10 -10 -16 30 -4 28 -33 201 -64 385 l-56 335 -132 3 c-122 2 -133 1 -133 -15z"/>
    <path d="M3525 1317 c-122 -31 -212 -105 -234 -192 -17 -69 -15 -469 4 -532 36 -121 172 -193 365 -193 192 0 329 73 365 194 18 59 21 468 5 527 -23 81 -89 146 -185 180 -74 27 -244 35 -320 16z m187 -177 c66 -19 68 -28 68 -273 0 -131 -4 -226 -10 -238 -25 -46 -122 -64 -181 -33 -51 26 -59 61 -59 271 0 217 8 249 70 270 44 15 66 15 112 3z"/>
    <path d="M4591 1319 c-37 -7 -86 -28 -203 -87 -5 -2 -8 17 -8 42 l0 46 -130 0 -130 0 0 -455 0 -455 130 0 130 0 0 288 c0 258 2 291 19 328 34 75 117 116 238 118 l83 1 0 93 0 92 -42 -1 c-24 -1 -63 -5 -87 -10z"/>
    <path d="M5843 239 c-49 -10 -83 -36 -100 -77 -33 -79 32 -162 126 -162 25 0 58 7 74 14 23 13 27 13 27 0 0 -8 7 -14 15 -14 12 0 15 14 15 65 l0 65 -65 0 c-51 0 -65 -3 -65 -15 0 -11 12 -15 50 -15 56 0 61 -9 25 -45 -37 -37 -106 -35 -146 4 -20 20 -29 39 -29 61 0 22 9 41 29 61 37 37 104 41 144 8 18 -14 32 -17 42 -12 13 8 12 12 -7 30 -28 27 -92 42 -135 32z"/>
    <path d="M4000 120 c0 -100 3 -120 15 -120 11 0 15 12 15 50 l0 50 85 0 c68 0 85 3 85 15 0 11 -18 15 -82 17 l-83 3 -3 38 -3 37 90 0 c74 0 91 3 91 15 0 12 -18 15 -105 15 l-105 0 0 -120z"/>
    <path d="M4252 124 c3 -104 5 -119 21 -122 14 -3 17 4 17 47 l0 51 54 0 c53 0 56 -1 97 -50 23 -27 50 -50 61 -50 25 0 23 6 -17 53 l-36 42 26 18 c29 21 34  71 11 103 -12 16 -29 19 -126 22 l-111 4 3 -118z m202 70 c19 -18 19 -20 6 -45 -9 -16 -22 -19 -90 -19 l-80 0 0 40 0 40 74 0 c54 0 79 -4 90 -16z"/>
    <path d="M4608 224 c-56 -30 -77 -127 -38 -176 29 -37 71 -51 140 -46 45 3 66 10 85 28 56 53 49 144 -14 187 -40 27 -130 31 -173 7z m163 -43 c20 -20 29 -39 29 -61 0 -22 -9 -41 -29 -61 -25 -24 -38 -29 -80 -29 -69 0 -106 31 -106 90 0 59 37 90 106 90 42 0 55 -5 80 -29z"/>
    <path d="M4890 120 c0 -100 3 -120 15 -120 12 0 15 17 16 93 l0 92 47 -93 c26 -50 52 -92 59 -92 7 0 35 44 62 98 l50 97 0 -97 c1 -80 4 -98 16 -98 13 0 15 20 15 120 0 119 0 120 -23 120 -20 0 -31 -16 -71 -100 l-48 -99 -49 99 c-38 78 -53 100 -69 100 -19 0 -20 -6 -20 -120z"/>
    <path d="M5340 120 c0 -113 1 -120 20 -120 19 0 20 7 20 120 0 113 -1 120 -20 120 -19 0 -20 -7 -20 -120z"/>
    <path d="M5450 121 l0 -121 63 0 c128 0 177 34 177 121 0 40 -5 55 -29 81 -28 32 -32 33 -120 36 l-91 4 0 -121z m163 78 c49 -22 61 -91 23 -135 -20 -24 -32 -28 -90 -32 l-66 -4 0 91 0 91 55 0 c30 0 65 -5 78 -11z"/>
  </g>
</svg>
